PathFileType	4	(X/Y/Z)	C:/Users/cpontonn/Documents/TRAVAIL - COURS/FORMATION DOCTORALE/COURS 2E/2023/TP OPENSIM/DATA/marche.trc	
DataRate	CameraRate	NumFrames	NumMarkers	Units	OrigDataRate	OrigDataStartFrame	OrigNumFrames	
100.00	100.00	4	38	mm	100.00	322	414	
Frame#	Time	LFHD			LBHD			RFHD			RBHD			C7			T10			CLAV			STRN			LSHO			LRAD			LHUM			LWRB			LWRA			LCAR			RSHO			RRAD			RHUM			RWRB			RWRA			RCAR			LFWT			LBWT			RFWT			RBWT			LKNE			LKNI			LANE			LHEE			LANI			LTAR			LTOE			RKNE			RKNI			RANE			RHEE			RANI			RTAR			RTOE			
		X1	Y1	Z1	X2	Y2	Z2	X3	Y3	Z3	X4	Y4	Z4	X5	Y5	Z5	X6	Y6	Z6	X7	Y7	Z7	X8	Y8	Z8	X9	Y9	Z9	X10	Y10	Z10	X11	Y11	Z11	X12	Y12	Z12	X13	Y13	Z13	X14	Y14	Z14	X15	Y15	Z15	X16	Y16	Z16	X17	Y17	Z17	X18	Y18	Z18	X19	Y19	Z19	X20	Y20	Z20	X21	Y21	Z21	X22	Y22	Z22	X23	Y23	Z23	X24	Y24	Z24	X25	Y25	Z25	X26	Y26	Z26	X27	Y27	Z27	X28	Y28	Z28	X29	Y29	Z29	X30	Y30	Z30	X31	Y31	Z31	X32	Y32	Z32	X33	Y33	Z33	X34	Y34	Z34	X35	Y35	Z35	X36	Y36	Z36	X37	Y37	Z37	X38	Y38	Z38	

208	2.070	-52.54368	186.22955	1671.96729	96.66840	185.32700	1695.47839	-53.81526	321.10742	1673.05945	108.99537	311.29669	1691.74768	199.51968	265.89487	1582.52686	318.44739	258.92908	1376.18726	96.89179	269.85464	1475.50452	94.53764	269.68335	1298.06946	147.26515	67.67120	1544.56665	171.72482	-27.20481	1177.72400	198.02692	35.27314	1176.25171	-31.60469	-30.22475	1013.49542	-62.79879	33.33735	1045.67188	-122.54798	-23.46510	996.31140	161.22751	456.40076	1526.89465	326.78110	519.90356	1192.01831	350.10437	464.85205	1206.23865	335.34601	551.97784	932.75476	299.24969	490.31223	918.02057	321.44513	548.09296	844.81360	92.67743	159.93277	1037.23364	282.76266	242.73880	1066.70752	79.35953	350.94965	1036.74939	278.03946	323.43317	1059.36890	320.37952	120.70707	544.64355	330.41931	235.27402	513.51947	502.80032	163.79379	123.27462	604.39722	208.38312	59.54417	501.52853	252.64174	130.90611	360.89618	152.18919	38.72900	314.84009	243.53732	31.87959	-23.49374	420.26044	549.31775	-43.52215	324.08109	511.56311	-225.79289	405.01559	131.18640	-200.46916	335.87692	35.18202	-225.05664	317.34094	163.74226	-387.46509	437.17465	166.36658	-431.83566	356.89987	209.67406 
209	2.080	-66.71791	189.06534	1670.18262	82.45147	188.14003	1693.46399	-67.90523	323.94623	1670.54260	94.18257	314.26678	1689.16260	185.04640	268.25204	1579.67859	303.52090	260.85995	1373.07117	82.43622	271.60663	1472.97266	79.37062	270.76889	1294.99512	133.21324	69.63602	1542.27112	158.74551	-26.47620	1175.78052	185.13171	37.02314	1174.03760	-43.06036	-29.74626	1009.75439	-74.76099	33.70673	1041.61780	-133.87450	-23.70410	992.20868	146.43051	458.63724	1523.28479	310.98593	521.12549	1187.69885	334.64313	466.22714	1202.06726	319.63354	552.42590	928.40558	284.11795	490.34671	913.90643	306.13031	547.79810	840.44165	78.11317	160.17131	1034.23816	267.77042	244.44838	1063.75684	63.86477	351.22394	1033.81580	262.35330	325.12857	1056.32104	309.72397	120.85248	543.19592	319.97812	235.42082	512.10315	500.82373	163.72368	125.52087	603.47949	208.34882	63.60297	499.42361	252.54538	133.15196	360.67908	152.08379	38.48560	314.66943	243.56294	31.53378	-42.35006	420.54434	548.47974	-61.79321	324.34357	510.22437	-242.98167	404.42352	128.60179	-217.96964	334.35489	33.25004	-242.20474	316.91599	162.01399	-404.58804	436.74176	164.02863	-448.73010	356.86600	208.36798 
210	2.090	-81.02520	192.06117	1668.62805	68.23082	191.13144	1691.59106	-82.09444	326.89011	1668.30176	80.03334	317.21826	1686.63196	170.39423	270.66928	1577.02405	288.47427	262.89325	1370.10608	67.51699	273.47736	1470.53601	64.06552	272.03204	1292.20032	119.07675	71.63553	1539.98132	146.37492	-23.75262	1173.51648	172.22833	38.89652	1171.92371	-54.00293	-29.24413	1005.71271	-86.25650	34.20190	1037.10791	-144.62796	-23.81458	987.47742	131.59560	460.91046	1519.87878	294.94150	522.37817	1183.42383	318.89041	467.58578	1197.95471	303.44800	552.93976	924.09888	268.39786	490.52448	909.85632	290.26852	547.66541	836.14520	63.43160	160.51855	1031.33191	252.59065	246.16762	1061.03674	48.21043	351.52911	1031.09900	246.49384	326.74210	1053.60925	298.10263	120.95205	541.59418	308.74451	235.49414	510.59360	498.54736	163.57466	128.07016	602.38293	208.33546	68.30982	496.95840	252.43962	135.80617	360.43112	151.97284	38.25944	314.54654	243.55444	31.20345	-61.82763	420.83597	547.98865	-81.01063	324.58310	509.40439	-257.45557	403.59171	124.95538	-231.83263	333.35574	29.87874	-257.00647	316.25995	158.55574	-419.09100	436.16855	159.42154	-463.60480	356.46732	203.66545 
211	2.100	-95.35690	195.17534	1667.31250	53.95287	194.20723	1689.87756	-96.27900	330.00302	1666.32410	65.88565	320.27313	1684.26074	155.59685	273.09735	1574.49377	273.26025	264.94153	1367.22009	52.44628	275.46182	1468.22681	48.70356	273.41727	1289.60059	104.70841	73.75853	1537.87573	133.80743	-21.80411	1171.62183	159.39703	40.91162	1170.00769	-63.84297	-27.82587	1001.82507	-97.30592	34.72200	1032.13562	-154.81718	-23.86553	982.17285	116.78552	463.21463	1516.67957	278.65768	523.54791	1179.27258	302.80402	468.83078	1193.87012	286.87350	553.53967	919.95526	252.16771	490.94846	905.92413	273.84634	547.83368	831.98676	48.45318	161.01628	1028.55444	237.12321	247.78537	1058.45251	32.35523	351.93326	1028.63379	230.70743	328.32230	1051.27795	285.62292	120.97408	539.85229	296.70999	235.46893	508.91992	495.88568	163.33438	131.02600	600.98199	208.26662	73.61094	494.10461	252.29314	138.75163	360.12027	151.83652	38.05637	314.51309	243.47260	30.85176	-81.69832	421.20624	547.74469	-100.96829	324.81732	509.22855	-269.37775	402.68704	120.19075	-242.57457	332.63916	25.28230	-269.41714	315.45496	153.71887	-431.26282	435.23508	152.82234	-476.40347	355.51758	196.30688 
